{
    "asset" : {
        "generator" : "Khronos glTF Blender I/O v1.3.48",
        "version" : "2.0"
    },
    "scene" : 0,
    "scenes" : [
        {
            "name" : "Scene",
            "nodes" : [
                1,
                2
            ]
        }
    ],
    "nodes" : [
        {
            "name" : "RootNode"
        },
        {
            "children" : [
                0
            ],
            "name" : "YNVQS712P1RZ075K6LPGWUS4F.fbx",
            "rotation" : [
                0.7071068286895752,
                0,
                0,
                0.7071068286895752
            ]
        },
        {
            "mesh" : 0,
            "name" : "U3DMesh_mat_3_0",
            "translation" : [
                1.0098565816879272,
                0.7693573236465454,
                -0.9959167242050171
            ]
        }
    ],
    "materials" : [
        {
            "doubleSided" : true,
            "emissiveFactor" : [
                0,
                0,
                0
            ],
            "name" : "mat_3",
            "pbrMetallicRoughness" : {
                "baseColorTexture" : {
                    "index" : 0,
                    "texCoord" : 0
                },
                "metallicFactor" : 0,
                "roughnessFactor" : 1
            }
        }
    ],
    "meshes" : [
        {
            "name" : "U3DMesh_mat_3_0",
            "primitives" : [
                {
                    "attributes" : {
                        "POSITION" : 0,
                        "NORMAL" : 1,
                        "TEXCOORD_0" : 2
                    },
                    "indices" : 3,
                    "material" : 0
                }
            ]
        }
    ],
    "textures" : [
        {
            "source" : 0
        }
    ],
    "images" : [
        {
            "bufferView" : 4,
            "mimeType" : "image/jpeg",
            "name" : "mat_3_baseColor"
        }
    ],
    "accessors" : [
        {
            "bufferView" : 0,
            "componentType" : 5126,
            "count" : 645,
            "max" : [
                -0.8710209131240845,
                -0.3598582446575165,
                1.25
            ],
            "min" : [
                -1.1183373928070068,
                -0.7679585218429565,
                0.7592412829399109
            ],
            "type" : "VEC3"
        },
        {
            "bufferView" : 1,
            "componentType" : 5126,
            "count" : 645,
            "type" : "VEC3"
        },
        {
            "bufferView" : 2,
            "componentType" : 5126,
            "count" : 645,
            "type" : "VEC2"
        },
        {
            "bufferView" : 3,
            "componentType" : 5123,
            "count" : 1668,
            "type" : "SCALAR"
        }
    ],
    "bufferViews" : [
        {
            "buffer" : 0,
            "byteLength" : 7740,
            "byteOffset" : 0
        },
        {
            "buffer" : 0,
            "byteLength" : 7740,
            "byteOffset" : 7740
        },
        {
            "buffer" : 0,
            "byteLength" : 5160,
            "byteOffset" : 15480
        },
        {
            "buffer" : 0,
            "byteLength" : 3336,
            "byteOffset" : 20640
        },
        {
            "buffer" : 0,
            "byteLength" : 24989,
            "byteOffset" : 23976
        }
    ],
    "buffers" : [
        {
            "byteLength" : 48968,
            "uri" : "data:application/octet-stream;base64,"
        }
    ]
}
